<svg id="A" width="27" height="32" xmlns="http://www.w3.org/2000/svg"><g fill="none" fill-rule="evenodd"><path d="M2.022 29.984c-.899-.323-1.224-1.08-.899-2.051 2.52-8.855 5.724-17.854 9.395-26.133C11.022.72 11.85 0 13.182 0s2.195.72 2.7 1.8c3.6 7.919 7.055 16.954 9.574 25.917.252 1.008.036 1.944-1.08 2.268-.828.217-1.69 0-2.088-1.188a217.784 217.784 0 00-1.943-6.407H6.162c-.647 2.088-1.26 4.14-1.87 6.228-.36 1.259-1.262 1.69-2.27 1.366zm5.04-10.33H19.41a226.489 226.489 0 00-6.228-16.378c-2.303 5.255-4.319 10.798-6.119 16.378z" fill="var(--svgFill)" fill-rule="nonzero"/><path d="M0 0h27v32H0z"/></g></svg>