<svg id="E" width="27" height="32" xmlns="http://www.w3.org/2000/svg"><g fill="none" fill-rule="evenodd"><path d="M22.407 31.584H5.525a2.127 2.127 0 01-2.124-2.123V3.724c0-1.152.972-2.088 2.124-2.088h16.917c.721 0 1.332.576 1.332 1.44 0 .72-.611 1.368-1.332 1.368H6.641v10.438h14.254c.756 0 1.367.576 1.367 1.404 0 .756-.611 1.404-1.367 1.404H6.641v11.087h15.766c.756 0 1.367.611 1.367 1.367 0 .829-.611 1.44-1.367 1.44z" fill="var(--svgFill)" fill-rule="nonzero"/><path d="M0 0h27v32H0z"/></g></svg>