<svg width="32" height="27" xmlns="http://www.w3.org/2000/svg"><g id="font-size" fill="var(--svgFill)" fill-rule="evenodd"><path d="M1.639 8.868h13.943c.197 0 .375.078.537.227a.74.74 0 01.24.55c0 .25-.081.454-.24.614a.74.74 0 01-.537.243H9.508v14.744a.906.906 0 01-.267.631.855.855 0 01-.643.28c-.284 0-.518-.092-.695-.28a.892.892 0 01-.27-.63V10.501H1.639a.764.764 0 01-.574-.229.773.773 0 01-.23-.574c0-.232.077-.43.23-.588a.75.75 0 01.574-.243"/><path d="M9.661.224h20.914c.295 0 .562.113.802.342.242.227.363.501.363.822 0 .376-.12.683-.363.923-.24.242-.507.36-.802.36h-9.114v22.123c0 .347-.133.66-.4.94a1.277 1.277 0 01-.964.422c-.427 0-.777-.14-1.042-.422-.269-.28-.404-.593-.404-.94V2.67h-8.99c-.349 0-.638-.11-.864-.337a1.182 1.182 0 01-.34-.865c0-.347.114-.643.34-.882.226-.243.515-.362.864-.362"/></g></svg>