<svg width="35" height="24" xmlns="http://www.w3.org/2000/svg"><g id="font-weight" fill="var(--svgFill)" fill-rule="evenodd"><path d="M2.069 12.225v9.878H7.95c3.437 0 6.073-1.361 6.073-4.94 0-3.245-1.855-4.938-5.826-4.938h-6.13zm0-1.522h5.908c2.635 0 4.965-1.251 4.965-4.553 0-2.552-1.97-3.854-5.547-3.854H2.069v8.407zm6.379 12.925H1.15a.832.832 0 01-.86-.86V2.517c0-1.055.503-1.746 1.61-1.746h5.852c4.662 0 6.992 2.106 6.992 5.379 0 2.554-1.471 4.329-3.631 5.105 3.162.72 4.713 2.747 4.713 5.908 0 4.384-3.467 6.465-7.38 6.465zM21.577 13.03v7.546h5.162c2.746 0 4.522-1.026 4.522-3.607 0-2.55-1.47-3.938-4.55-3.938h-5.134zm0-2.912h4.607c2.192 0 4.189-1 4.189-3.688 0-2.11-1.552-3.165-4.44-3.165h-4.356v6.853zm5.605 13.51H19.83c-.97 0-1.692-.831-1.692-1.968V2.795c0-1.553.75-2.58 2.442-2.58h5.465c5.215 0 7.795 2.19 7.795 5.66 0 2.663-1.193 4.437-3.69 5.215 3.162.805 4.719 2.857 4.719 6.02 0 4.409-3.553 6.519-7.688 6.519z"/></g></svg>