<svg width="32" height="27" xmlns="http://www.w3.org/2000/svg"><g id="letter-spacing" fill="var(--svgFill)" fill-rule="evenodd"><path d="M13.92 1.11c.266.07.451.21.56.427.103.21.131.433.076.665a96.993 96.993 0 01-2.443 7.826 106.542 106.542 0 01-2.869 7.164 2.435 2.435 0 01-.664.852 1.442 1.442 0 01-.93.344c-.373 0-.696-.113-.97-.344a2.484 2.484 0 01-.65-.852A103.151 103.151 0 013.08 9.92 98.362 98.362 0 01.662 2.305a1.1 1.1 0 01.026-.715c.09-.25.274-.41.558-.48a.975.975 0 01.72.067c.246.116.405.289.475.517.692 2.48 1.457 4.954 2.3 7.416a93.749 93.749 0 002.936 7.496 122.297 122.297 0 002.843-7.428 106.317 106.317 0 002.231-7.351c.07-.265.22-.47.45-.611a.864.864 0 01.718-.105M20.827 11.502h6.883a98.56 98.56 0 00-1.621-4.387 108.366 108.366 0 00-1.86-4.384 86.47 86.47 0 00-1.82 4.412 151.602 151.602 0 00-1.582 4.36m-3.24 6.778a.756.756 0 01-.438-.438.946.946 0 01-.013-.652 126.476 126.476 0 012.52-7.803c.94-2.615 1.96-5.132 3.06-7.562.123-.283.307-.516.557-.703.247-.186.557-.278.929-.278.37 0 .682.092.93.278.248.187.44.42.586.703a91.654 91.654 0 013.12 7.39 96.531 96.531 0 012.538 7.79c.07.246.07.494 0 .741-.07.25-.24.42-.506.505a1.047 1.047 0 01-.73-.05.804.804 0 01-.492-.586 72.045 72.045 0 00-.676-2.275c-.24-.75-.484-1.508-.733-2.27h-7.943c-.23.762-.46 1.52-.69 2.27-.23.758-.462 1.513-.691 2.275a.924.924 0 01-.532.598 1.19 1.19 0 01-.796.067M31.404 22.621c-.006-.03-.006-.06-.018-.088-.007-.02-.028-.039-.04-.059-.03-.057-.06-.117-.108-.166l-3.313-3.317a.68.68 0 10-.966.963l2.153 2.156H2.932l2.153-2.156a.684.684 0 000-.963.687.687 0 00-.965 0L.803 22.308c-.047.05-.078.11-.11.166-.01.02-.028.04-.038.06-.011.026-.01.057-.016.087a.669.669 0 00.164.65l3.315 3.32a.687.687 0 00.967 0 .686.686 0 00-.004-.968l-2.15-2.15H29.11l-2.15 2.15a.685.685 0 00-.001.967.686.686 0 00.966 0l3.313-3.319a.663.663 0 00.166-.65"/></g></svg>