<svg width="32" height="28" xmlns="http://www.w3.org/2000/svg"><g id="line-height" fill="var(--svgFill)" fill-rule="evenodd"><path d="M30.551.92H13.317a.82.82 0 000 1.639h17.234a.819.819 0 000-1.64M30.551 26.095H13.317a.818.818 0 100 1.634h17.234a.817.817 0 100-1.634M9.147 22.359l-2.585 2.586V3.707l2.585 2.587a.819.819 0 001.158-1.16L6.321 1.148c-.057-.056-.126-.091-.197-.13-.026-.014-.045-.037-.072-.048-.033-.013-.069-.01-.106-.02a.802.802 0 00-.779.198L1.184 5.132a.82.82 0 101.156 1.16l2.586-2.587v21.24L2.34 22.36a.814.814 0 00-1.156-.002.815.815 0 000 1.158l3.983 3.985a.8.8 0 00.779.199c.037-.01.073-.008.106-.02.027-.011.046-.036.072-.047.071-.04.14-.075.197-.132l3.984-3.986a.816.816 0 00-.001-1.157.817.817 0 00-1.157 0M30.551 10.989H13.317a.82.82 0 000 1.639h17.234a.82.82 0 000-1.64M30.551 16.024H13.317a.82.82 0 000 1.639h17.234a.819.819 0 000-1.64M30.551 5.954H13.317a.82.82 0 00-.819.82.82.82 0 00.82.817H30.55a.818.818 0 000-1.637M30.551 21.059H13.317a.82.82 0 000 1.638h17.234a.819.819 0 000-1.638"/></g></svg>