<svg id="B" width="27" height="32" xmlns="http://www.w3.org/2000/svg"><g fill="none" fill-rule="evenodd"><path d="M14.087 30.949H4.584C3.685 30.949 3 30.23 3 29.222V3.7C3 2.08 3.792 1 5.556 1h7.379c6.372 0 9.503 2.771 9.503 7.127 0 3.384-1.764 5.688-4.751 6.659 4.104.972 6.155 3.637 6.155 7.74 0 5.687-4.571 8.423-9.755 8.423zM6.24 13.851h6.946c3.168 0 6.012-1.476 6.012-5.436 0-3.06-2.34-4.607-6.587-4.607H6.24v10.043zm0 2.735v11.556h7.234c4.067 0 7.02-1.584 7.02-5.688 0-3.816-2.196-5.868-6.875-5.868H6.24z" fill="var(--svgFill)" fill-rule="nonzero"/><path d="M0 0h27v32H0z"/></g></svg>