<svg id="C" width="27" height="32" xmlns="http://www.w3.org/2000/svg"><g fill="none" fill-rule="evenodd"><path d="M23.031 7.937c-1.691-3.168-4.318-4.463-8.136-4.463-7.415 0-10.942 5.507-10.942 12.67 0 7.307 3.959 12.382 10.655 12.382 4.933 0 7.235-1.8 8.495-4.104.504-.864 1.404-1.296 2.268-.899.865.396.973 1.439.576 2.159-1.619 3.456-5.363 5.688-11.376 5.688-8.53 0-13.929-6.048-13.929-15.298C.642 7.829 5.286.63 14.968.63c4.753 0 9.253 1.908 10.872 5.795.396.899.324 1.691-.469 2.195-.791.433-1.799.145-2.34-.683z" fill="var(--svgFill)" fill-rule="nonzero"/><path d="M0 0h27v32H0z"/></g></svg>